<svg xmlns="http://www.w3.org/2000/svg" data-name="Layer 1" viewBox="0 0 100 125" x="0px" y="0px"><title>140all</title><path d="M85.55,16.51H14.45a9,9,0,0,0-9,9v49a9,9,0,0,0,9,9h71.1a9,9,0,0,0,9-9v-49A9,9,0,0,0,85.55,16.51Zm-1.65,6L52.17,55.67a3.07,3.07,0,0,1-4.33,0L16.1,22.51ZM11.45,26.32,30.39,46.11,11.45,69.39Zm74.1,51.17H14.45a3,3,0,0,1-1.51-.42L34.57,50.48l8.94,9.34a9,9,0,0,0,13,0l8.31-8.69,22.2,26A3,3,0,0,1,85.55,77.49Zm3-7.84L69,46.77,88.55,26.32Z"/><text x="0" y="115" fill="#000000" font-size="5px" font-weight="bold" font-family="'Helvetica Neue', Helvetica, Arial-Unicode, Arial, Sans-serif">Created by Drishya</text><text x="0" y="120" fill="#000000" font-size="5px" font-weight="bold" font-family="'Helvetica Neue', Helvetica, Arial-Unicode, Arial, Sans-serif">from the Noun Project</text></svg>